<svg xmlns="http://www.w3.org/2000/svg" xmlns:xlink="http://www.w3.org/1999/xlink" version="1.1" x="0px" y="0px" viewBox="0 0 100 125" enable-background="new 0 0 100 100" xml:space="preserve"><path d="M49.138,67.212c0,0.553-0.447,1-1,1H12.559c-0.553,0-1-0.447-1-1s0.447-1,1-1h35.579  C48.69,66.212,49.138,66.659,49.138,67.212z M22.649,70.243H12.559c-0.553,0-1,0.447-1,1s0.447,1,1,1h10.091c0.553,0,1-0.447,1-1  S23.202,70.243,22.649,70.243z M38.988,70.243H28.4c-0.553,0-1,0.447-1,1s0.447,1,1,1h10.588c0.553,0,1-0.447,1-1  S39.541,70.243,38.988,70.243z M44.883,55.995h8.081c0.553,0,1-0.447,1-1s-0.447-1-1-1h-8.081c-0.553,0-1,0.447-1,1  S44.33,55.995,44.883,55.995z M77.285,35.349c0.501-0.232,0.719-0.827,0.486-1.328c-0.231-0.501-0.823-0.72-1.328-0.486l-16.381,7.6  c-0.501,0.232-0.719,0.827-0.486,1.328c0.169,0.365,0.53,0.579,0.908,0.579c0.141,0,0.283-0.029,0.42-0.093L77.285,35.349z   M95.614,45.073c0,2.314-1.283,4.402-3.349,5.45L82.037,55.23c-0.254,0.849-0.369,1.756-0.325,2.71  c0.087,1.806,0.768,3.469,1.97,4.808c0.244,0.271,0.347,0.647,0.274,1.006c-0.073,0.356-0.314,0.662-0.646,0.816L58.706,76.093  l-46.139-0.004c-3.834,0-6.953-3.119-6.953-6.953c0-4.479,4.313-6.481,4.38-6.512l15.469-7.176c0.001-0.138,0.006-0.275-0.001-0.415  c-0.069-1.418-0.616-2.761-1.517-3.85l-0.281,0c-0.553,0-1-0.448-1-1c0-0.553,0.448-1,1-1l43.544,0.008  c1.637,0,3.174,0.636,4.328,1.79c1.154,1.153,1.79,2.69,1.79,4.328c0,0.649-0.106,1.275-0.297,1.863l7.732-3.557  c0.019-0.01,0.037-0.018,0.057-0.026l10.578-4.866c1.355-0.688,2.219-2.094,2.219-3.65c0-1.103-0.428-2.138-1.204-2.914  c-0.093-0.093-0.201-0.164-0.301-0.247l-16.498,7.653c-0.137,0.063-0.279,0.093-0.42,0.093c-0.378,0-0.739-0.214-0.908-0.579  c-0.232-0.501-0.015-1.096,0.486-1.328l14.65-6.796l-13.421-0.007l-15.896,7.448c-0.132,0.063-0.277,0.095-0.424,0.095  l-42.695-0.003c-3.015,0-5.468-2.453-5.468-5.469c0-2.067,1.153-3.871,2.851-4.801c0.021-0.012,0.042-0.023,0.063-0.034  c0.149-0.079,0.303-0.151,0.46-0.217l23.223-10.953c1.065-0.493,2.241-0.753,3.407-0.753h42.371c0.47,0,0.876,0.327,0.977,0.785  c0.101,0.459-0.131,0.926-0.558,1.123l-0.234,0.107c-0.881,1.054-1.326,2.427-1.257,3.888c0.059,1.206,0.733,2.156,1.802,3.298  c0.22,0.233,0.313,0.558,0.253,0.872c-0.061,0.314-0.269,0.581-0.559,0.717l-4.052,1.899l9.235,0.005  c1.636,0,3.173,0.636,4.327,1.79S95.614,43.437,95.614,45.073z M20.462,37.551h38.768l20.111-9.289H41.52  c-0.878,0-1.763,0.195-2.56,0.564L20.462,37.551z M57.087,46.491c-0.504-0.968-0.8-2.039-0.853-3.143  c-0.064-1.351,0.209-2.648,0.774-3.797H16.983c-0.455,0-0.89,0.088-1.288,0.248l-0.367,0.173c-1.079,0.589-1.813,1.734-1.813,3.048  c0,1.913,1.556,3.469,3.468,3.469L57.087,46.491z M82.271,35.802c-0.776-0.995-1.381-2.131-1.45-3.541  c-0.043-0.907,0.064-1.792,0.31-2.622L59.229,39.778c-0.687,0.991-1.058,2.188-0.997,3.474c0.057,1.186,0.508,2.309,1.248,3.228  l15.644-7.33c0.098-0.07,0.204-0.12,0.324-0.152L82.271,35.802z M15.699,62.183h43.069l1.502-0.763H23.928c-0.553,0-1-0.447-1-1  s0.447-1,1-1h0.184c0.369-0.472,0.665-0.993,0.886-1.551L15.699,62.183z M55.604,74.093c-0.816-1.369-1.3-2.923-1.378-4.535  c-0.092-1.933,0.349-3.782,1.248-5.375H12.567c-2.731,0-4.953,2.222-4.953,4.953s2.222,4.953,4.953,4.953L55.604,74.093z   M67.486,69.772l-2.404-2.35l-3.188,3.115v-7.699l-2.647,1.344h-1.362c-1.161,1.452-1.753,3.306-1.659,5.279  c0.082,1.704,0.73,3.33,1.823,4.631h0.213L67.486,69.772z M63.896,60.42c0,0.003-0.002,0.006-0.002,0.01v5.357l1.188-1.162  l1.188,1.161v-9.791h-2.376v4.415C63.894,60.414,63.896,60.417,63.896,60.42z M67.933,53.995c0.553,0,1,0.447,1,1  c0,0.433-0.278,0.793-0.663,0.932v3.338c1.752-0.473,3.057-2.067,3.057-3.956c0-1.104-0.428-2.138-1.204-2.914  s-1.812-1.204-2.914-1.204L26.38,51.184c0.638,1.145,1.016,2.427,1.08,3.753c0.076,1.604-0.271,3.139-0.979,4.482h35.413v-3.425  h-6.301c-0.553,0-1-0.447-1-1s0.447-1,1-1H67.933z M81.494,63.211c-1.078-1.514-1.689-3.283-1.78-5.178  c-0.028-0.603,0.002-1.192,0.072-1.768l-9.628,4.43c-0.046,0.021-1.04,0.501-1.888,0.625v8.085L81.494,63.211z"/></svg>